<svg xmlns="http://www.w3.org/2000/svg" width="800" height="651" viewBox="0 0 800 651" fill="none"><mask id="mask0_150_1731" style="mask-type:alpha" maskUnits="userSpaceOnUse" x="0" y="0" width="800" height="651"><path d="M27.474 438.542H771.68V408.138C771.68 400.781 770.247 393.945 767.708 387.826C764.974 381.315 760.937 375.521 755.924 370.508C752.865 367.448 749.414 364.648 745.703 362.174C741.927 359.635 737.891 357.422 733.659 355.534C722.266 353.06 710.937 350.716 699.674 348.503C688.346 346.289 676.953 344.206 665.495 342.253C664.974 342.187 664.583 342.122 664.062 341.992C658.268 341.016 652.734 340.104 647.461 339.258C642.187 338.411 636.589 337.565 630.729 336.654H630.599C590.755 331.576 551.042 327.669 511.393 325.065C471.68 322.461 432.161 321.159 392.904 321.094C369.596 321.094 346.354 321.484 323.112 322.396C300 323.307 276.758 324.609 253.516 326.432H253.385C231.641 328.451 209.961 330.99 188.216 333.919C166.536 336.849 144.792 340.299 122.917 344.141L120.508 344.727C120.052 344.857 119.596 344.922 119.206 344.922C118.815 344.987 118.424 344.987 118.034 344.987C107.812 346.81 97.3307 348.828 86.5234 350.977C76.0417 353.06 65.5599 355.273 55.1432 357.552C52.5391 358.984 50.0651 360.612 47.7214 362.305C45.3776 364.063 43.099 365.951 41.0807 367.969C36.7187 372.331 33.2682 377.344 30.9245 382.943C28.7109 388.216 27.474 394.076 27.474 400.456V438.542ZM92.4479 0H697.852C705.729 0 713.281 1.5625 720.182 4.42708C727.344 7.42187 733.789 11.7839 739.193 17.1224C744.596 22.526 748.958 28.9714 751.888 36.1328C754.753 43.0339 756.315 50.5859 756.315 58.4635V336.393C759.635 338.346 762.891 340.495 765.885 342.839C769.271 345.443 772.461 348.177 775.391 351.107C782.943 358.659 789.062 367.448 793.164 377.344C797.07 386.654 799.219 397.005 799.219 408.203V447.852C799.414 448.503 799.609 449.154 799.74 449.805V449.935C799.87 450.781 799.935 451.563 799.935 452.344C799.935 453.19 799.87 454.036 799.674 454.883C799.544 455.534 799.349 456.185 799.154 456.836V636.914C799.154 640.69 797.591 644.141 795.117 646.615C792.643 649.089 789.193 650.651 785.417 650.651H757.096C753.906 650.651 750.977 649.544 748.633 647.721C746.289 645.898 744.531 643.294 743.815 640.299C738.607 625.325 733.333 613.477 727.669 604.232C722.07 595.117 716.081 588.607 709.18 583.984C702.214 579.362 693.88 576.432 683.789 574.674C673.503 572.852 661.523 572.266 647.266 572.331L127.995 572.982H127.734C117.513 572.786 109.115 574.089 102.083 576.823C95.1172 579.557 89.4531 583.659 84.7656 588.932C79.4922 594.792 75.0651 602.279 71.0286 611.003C66.9271 619.922 63.2161 630.078 59.5052 641.211C58.5938 644.075 56.7708 646.354 54.4922 647.982C52.3437 649.544 49.7396 650.456 47.0703 650.586C46.875 650.651 46.6797 650.651 46.4844 650.651H13.737C9.96094 650.651 6.51042 649.089 4.03646 646.615C1.5625 644.141 0 640.69 0 636.914V400.521C0 390.299 1.95312 380.924 5.46875 372.461C9.24479 363.477 14.7786 355.469 21.6797 348.568C23.6328 346.615 25.7812 344.661 28.0599 342.839C30.013 341.276 31.9661 339.779 34.0495 338.411V57.8776C34.0495 50 35.612 42.513 38.4766 35.7422C41.4714 28.6458 45.8333 22.2656 51.237 16.9271C56.6406 11.5885 63.0859 7.35677 70.1823 4.42708C77.0833 1.5625 84.5703 0 92.4479 0ZM697.852 27.474H92.4479C88.2161 27.474 84.1797 28.3203 80.4687 29.8177C76.6276 31.3802 73.2422 33.6589 70.3776 36.4583C67.5781 39.1927 65.2995 42.5781 63.737 46.224C62.3047 49.8047 61.5234 53.7109 61.5234 57.8776V325.195C63.4766 324.544 65.4297 324.023 67.4479 323.503C70.638 322.656 73.8281 321.94 77.0182 321.419C81.4453 320.638 86.263 319.792 91.4714 318.88C95.3776 318.229 99.5443 317.513 103.841 316.862V248.633C103.841 238.346 105.924 228.516 109.635 219.531C113.542 210.156 119.206 201.758 126.237 194.727C133.268 187.695 141.667 182.031 151.042 178.125C160.026 174.414 169.857 172.331 180.143 172.331H309.18C319.466 172.331 329.297 174.414 338.281 178.125C347.656 182.031 356.055 187.695 363.086 194.727C370.117 201.758 375.781 210.156 379.687 219.531C383.398 228.516 385.482 238.346 385.482 248.633V292.187C390.039 292.122 394.596 292.122 399.219 292.122V248.633C399.219 238.346 401.302 228.516 405.013 219.531C408.919 210.156 414.583 201.758 421.615 194.727C428.646 187.695 437.044 182.031 446.419 178.125C455.404 174.414 465.234 172.331 475.521 172.331H604.557C614.844 172.331 624.674 174.414 633.659 178.125C643.034 182.031 651.432 187.695 658.464 194.727C665.495 201.758 671.159 210.156 675.065 219.531C678.776 228.516 680.859 238.346 680.859 248.633V315.951C685.742 316.667 690.95 317.513 696.549 318.424C702.734 319.401 708.659 320.378 714.388 321.354C717.318 321.875 720.312 322.461 723.307 323.177C725.195 323.633 727.018 324.089 728.776 324.609V58.4635C728.776 54.2969 727.93 50.3255 726.432 46.6797C724.87 42.9036 722.526 39.5182 719.661 36.5885C716.797 33.724 713.346 31.3802 709.635 29.8177C705.99 28.3203 702.018 27.474 697.852 27.474ZM281.315 296.615C294.401 295.638 307.552 294.792 320.898 294.141C333.203 293.49 345.638 293.034 358.073 292.708V248.633C358.073 242.057 356.771 235.742 354.362 230.013C351.888 224.023 348.242 218.685 343.685 214.128C339.193 209.635 333.789 205.99 327.799 203.451C322.07 201.042 315.755 199.74 309.18 199.74H180.143C173.568 199.74 167.253 201.042 161.523 203.451C155.534 205.924 150.195 209.57 145.638 214.128C141.146 218.62 137.5 224.023 134.961 230.013C132.552 235.742 131.25 242.057 131.25 248.633V312.5C141.797 310.937 152.474 309.505 163.411 308.073C175.195 306.576 186.914 305.208 198.503 303.906C202.995 303.385 207.812 302.799 212.826 302.279C217.513 301.758 222.396 301.302 227.604 300.781C236.458 299.935 245.247 299.154 253.906 298.437C262.826 297.852 271.94 297.201 281.315 296.615ZM426.693 292.318C434.57 292.448 442.448 292.643 450.325 292.904C459.049 293.164 467.773 293.555 476.432 293.945H476.497C490.755 294.466 504.687 295.117 518.229 295.898C531.771 296.68 544.987 297.656 557.617 298.763C575.977 300.391 593.75 302.344 610.612 304.622C625.716 306.706 640.039 309.049 653.451 311.654V248.633C653.451 242.057 652.148 235.742 649.74 230.013C647.266 224.023 643.62 218.685 639.063 214.128C634.57 209.635 629.167 205.99 623.177 203.451C617.448 201.042 611.133 199.74 604.557 199.74H475.586C469.01 199.74 462.695 201.042 456.966 203.451C450.977 205.924 445.638 209.57 441.081 214.128C436.589 218.62 432.943 224.023 430.404 230.013C427.995 235.742 426.693 242.057 426.693 248.633V292.318ZM771.745 466.081H27.474V623.177H36.7839C40.4297 612.891 44.2057 603.32 48.4375 594.792C52.9948 585.677 58.138 577.604 64.388 570.638C71.8099 562.305 80.5338 555.859 91.0156 551.562C101.497 547.331 113.737 545.182 128.451 545.508L647.266 544.857C663.997 544.857 678.32 545.638 690.82 548.047C703.516 550.456 714.453 554.557 724.284 561.068C733.398 567.122 741.211 575.13 748.242 585.612C754.948 595.638 760.937 607.943 766.667 623.112H771.615V466.081H771.745Z" fill="black"></path></mask><g mask="url(#mask0_150_1731)"><rect x="-265" y="-508" width="1233" height="1405" fill="white"></rect></g></svg>