<svg xmlns="http://www.w3.org/2000/svg" width="800" height="576" viewBox="0 0 800 576" fill="none"><mask id="mask0_150_1769" style="mask-type:alpha" maskUnits="userSpaceOnUse" x="0" y="0" width="800" height="576"><path d="M181.507 0C108.327 0 47.9132 57.0638 47.9132 128V134.625C25.2046 144.386 7.85495 164.454 2.13193 188.969C-7.10519 228.554 14.6882 264.586 47.9132 279.625V400C47.9132 437.888 66.9609 471.433 95.9132 491.719V560C95.9136 564.243 97.5995 568.313 100.6 571.313C103.6 574.314 107.67 576 111.913 576H175.913C180.157 576 184.226 574.314 187.226 571.313C190.227 568.313 191.913 564.243 191.913 560V512H607.913V560C607.914 564.243 609.599 568.313 612.6 571.313C615.6 574.314 619.67 576 623.913 576H687.913C692.157 576 696.226 574.314 699.226 571.313C702.227 568.313 703.913 564.243 703.913 560V491.719C732.865 471.433 751.913 437.888 751.913 400V279.906C779.835 267.441 799.913 240.462 799.913 208C799.913 175.405 780.033 147.25 751.913 134.812V128C751.913 57.0638 691.499 0 618.319 0H181.507ZM181.507 32H618.319C675.028 32 719.913 75.2242 719.913 128V128.031C717.331 128.03 714.729 128.124 712.101 128.375C670.115 132.372 639.913 169.529 639.913 210.75V288H447.913C428.759 288 411.676 296.739 399.913 310.219C388.151 296.739 371.068 288 351.913 288H159.913V208C159.913 164.04 123.515 128.268 79.9132 128.062V128C79.9132 75.2242 124.799 32 181.507 32ZM207.913 80C203.67 80 199.6 81.6857 196.599 84.6863C193.599 87.6869 191.913 91.7565 191.913 96C191.913 100.243 193.599 104.313 196.599 107.314C199.6 110.314 203.67 112 207.913 112C212.157 112 216.226 110.314 219.227 107.314C222.227 104.313 223.913 100.243 223.913 96C223.913 91.7565 222.227 87.6869 219.227 84.6863C216.226 81.6857 212.157 80 207.913 80ZM335.913 80C331.67 80 327.6 81.6857 324.599 84.6863C321.599 87.6869 319.913 91.7565 319.913 96C319.913 100.243 321.599 104.313 324.599 107.314C327.6 110.314 331.67 112 335.913 112C340.157 112 344.226 110.314 347.227 107.314C350.227 104.313 351.913 100.243 351.913 96C351.913 91.7565 350.227 87.6869 347.227 84.6863C344.226 81.6857 340.157 80 335.913 80ZM463.913 80C459.67 80 455.6 81.6857 452.599 84.6863C449.599 87.6869 447.913 91.7565 447.913 96C447.913 100.243 449.599 104.313 452.599 107.314C455.6 110.314 459.67 112 463.913 112C468.157 112 472.226 110.314 475.227 107.314C478.227 104.313 479.913 100.243 479.913 96C479.913 91.7565 478.227 87.6869 475.227 84.6863C472.226 81.6857 468.157 80 463.913 80ZM591.913 80C587.67 80 583.6 81.6857 580.599 84.6863C577.599 87.6869 575.913 91.7565 575.913 96C575.913 100.243 577.599 104.313 580.599 107.314C583.6 110.314 587.67 112 591.913 112C596.157 112 600.226 110.314 603.227 107.314C606.228 104.313 607.913 100.243 607.913 96C607.913 91.7565 606.228 87.6869 603.227 84.6863C600.226 81.6857 596.157 80 591.913 80ZM271.913 144C267.67 144 263.6 145.686 260.599 148.686C257.599 151.687 255.913 155.757 255.913 160C255.913 164.243 257.599 168.313 260.599 171.314C263.6 174.314 267.67 176 271.913 176C276.157 176 280.226 174.314 283.227 171.314C286.227 168.313 287.913 164.243 287.913 160C287.913 155.757 286.227 151.687 283.227 148.686C280.226 145.686 276.157 144 271.913 144ZM399.913 144C395.67 144 391.6 145.686 388.599 148.686C385.599 151.687 383.913 155.757 383.913 160C383.913 164.243 385.599 168.313 388.599 171.314C391.6 174.314 395.67 176 399.913 176C404.157 176 408.226 174.314 411.227 171.314C414.227 168.313 415.913 164.243 415.913 160C415.913 155.757 414.227 151.687 411.227 148.686C408.226 145.686 404.157 144 399.913 144ZM527.913 144C523.67 144 519.6 145.686 516.599 148.686C513.599 151.687 511.913 155.757 511.913 160C511.913 164.243 513.599 168.313 516.599 171.314C519.6 174.314 523.67 176 527.913 176C532.157 176 536.226 174.314 539.227 171.314C542.228 168.313 543.913 164.243 543.913 160C543.913 155.757 542.228 151.687 539.227 148.686C536.226 145.686 532.157 144 527.913 144ZM80.1944 159.969C107.144 159.921 127.913 181.373 127.913 208V368C127.913 394.32 149.594 416 175.913 416H623.913C650.233 416 671.913 394.32 671.913 368V210.75C671.913 185.123 690.557 162.558 715.132 160.219C744.216 157.44 767.913 179.729 767.913 208C767.913 230.471 752.591 248.874 731.882 254.25C728.452 255.143 725.416 257.15 723.25 259.955C721.083 262.761 719.91 266.206 719.913 269.75V400C719.913 444.379 684.292 480 639.913 480H159.913C115.535 480 79.9132 444.379 79.9132 400V269.906C79.9078 266.363 78.7266 262.922 76.5549 260.123C74.3831 257.323 71.3437 255.324 67.9132 254.438C43.7681 248.207 26.7289 224.328 33.2882 196.219C37.2115 179.413 51.4948 165.21 68.3194 161.344C72.3796 160.411 76.3445 159.976 80.1944 159.969ZM207.913 208C203.67 208 199.6 209.686 196.599 212.686C193.599 215.687 191.913 219.757 191.913 224C191.913 228.243 193.599 232.313 196.599 235.314C199.6 238.314 203.67 240 207.913 240C212.157 240 216.226 238.314 219.227 235.314C222.227 232.313 223.913 228.243 223.913 224C223.913 219.757 222.227 215.687 219.227 212.686C216.226 209.686 212.157 208 207.913 208ZM335.913 208C331.67 208 327.6 209.686 324.599 212.686C321.599 215.687 319.913 219.757 319.913 224C319.913 228.243 321.599 232.313 324.599 235.314C327.6 238.314 331.67 240 335.913 240C340.157 240 344.226 238.314 347.227 235.314C350.227 232.313 351.913 228.243 351.913 224C351.913 219.757 350.227 215.687 347.227 212.686C344.226 209.686 340.157 208 335.913 208ZM463.913 208C459.67 208 455.6 209.686 452.599 212.686C449.599 215.687 447.913 219.757 447.913 224C447.913 228.243 449.599 232.313 452.599 235.314C455.6 238.314 459.67 240 463.913 240C468.157 240 472.226 238.314 475.227 235.314C478.227 232.313 479.913 228.243 479.913 224C479.913 219.757 478.227 215.687 475.227 212.686C472.226 209.686 468.157 208 463.913 208ZM591.913 208C587.67 208 583.6 209.686 580.599 212.686C577.599 215.687 575.913 219.757 575.913 224C575.913 228.243 577.599 232.313 580.599 235.314C583.6 238.314 587.67 240 591.913 240C596.157 240 600.226 238.314 603.227 235.314C606.228 232.313 607.913 228.243 607.913 224C607.913 219.757 606.228 215.687 603.227 212.686C600.226 209.686 596.157 208 591.913 208ZM159.913 320H351.913C369.78 320 383.913 334.133 383.913 352V384H175.913C166.873 384 159.913 377.04 159.913 368V320ZM447.913 320H639.913V368C639.913 377.04 632.954 384 623.913 384H415.913V352C415.913 334.133 430.047 320 447.913 320ZM127.913 507.25C138.063 510.291 148.799 512 159.913 512V544H127.913V507.25ZM671.913 507.25V544H639.913V512C651.028 512 661.764 510.291 671.913 507.25Z" fill="black"></path></mask><g mask="url(#mask0_150_1769)"><rect x="-192" y="-377" width="1166" height="1121" fill="white"></rect></g></svg>