<svg xmlns="http://www.w3.org/2000/svg" width="745" height="745" viewBox="0 0 745 745" fill="none"><mask id="mask0_150_1772" style="mask-type:alpha" maskUnits="userSpaceOnUse" x="0" y="0" width="745" height="745"><path d="M732 332C738.904 332 744.5 326.404 744.5 319.5C744.5 312.596 738.904 307 732 307C725.096 307 719.5 312.596 719.5 319.5C719.5 326.404 725.096 332 732 332Z" fill="black"></path><path d="M457 82C463.904 82 469.5 76.4036 469.5 69.5C469.5 62.5964 463.904 57 457 57C450.096 57 444.5 62.5964 444.5 69.5C444.5 76.4036 450.096 82 457 82Z" fill="black"></path><path d="M719.5 444.5C726.404 444.5 732 438.904 732 432C732 425.096 726.404 419.5 719.5 419.5C712.596 419.5 707 425.096 707 432C707 438.904 712.596 444.5 719.5 444.5Z" fill="black"></path><path d="M57 12.7871V30.4746" stroke="black" stroke-width="25" stroke-linecap="round" stroke-linejoin="round"></path><path d="M57 83.5254V101.213" stroke="black" stroke-width="25" stroke-linecap="round" stroke-linejoin="round"></path><path d="M12.7875 57H30.475" stroke="black" stroke-width="25" stroke-linecap="round" stroke-linejoin="round"></path><path d="M83.525 57H101.212" stroke="black" stroke-width="25" stroke-linecap="round" stroke-linejoin="round"></path><path d="M117.538 232H69.5V182H116.362" stroke="black" stroke-width="25" stroke-linecap="round" stroke-linejoin="round"></path><path d="M647.95 182H694.5V232H644.5" stroke="black" stroke-width="25" stroke-linecap="round" stroke-linejoin="round"></path><path d="M182 269.5H582L682 557V682H82V557L160.262 332" stroke="black" stroke-width="25" stroke-linecap="round" stroke-linejoin="round"></path><path d="M132 557H219.5" stroke="black" stroke-width="25" stroke-linecap="round" stroke-linejoin="round"></path><path d="M269.5 557H319.5" stroke="black" stroke-width="25" stroke-linecap="round" stroke-linejoin="round"></path><path d="M369.5 557H632" stroke="black" stroke-width="25" stroke-linecap="round" stroke-linejoin="round"></path><path d="M107 732V682" stroke="black" stroke-width="25" stroke-linecap="round" stroke-linejoin="round"></path><path d="M157 732V682" stroke="black" stroke-width="25" stroke-linecap="round" stroke-linejoin="round"></path><path d="M207 732V682" stroke="black" stroke-width="25" stroke-linecap="round" stroke-linejoin="round"></path><path d="M257 732V682" stroke="black" stroke-width="25" stroke-linecap="round" stroke-linejoin="round"></path><path d="M307 732V682" stroke="black" stroke-width="25" stroke-linecap="round" stroke-linejoin="round"></path><path d="M357 732V682" stroke="black" stroke-width="25" stroke-linecap="round" stroke-linejoin="round"></path><path d="M407 732V682" stroke="black" stroke-width="25" stroke-linecap="round" stroke-linejoin="round"></path><path d="M457 732V682" stroke="black" stroke-width="25" stroke-linecap="round" stroke-linejoin="round"></path><path d="M507 732V682" stroke="black" stroke-width="25" stroke-linecap="round" stroke-linejoin="round"></path><path d="M557 732V682" stroke="black" stroke-width="25" stroke-linecap="round" stroke-linejoin="round"></path><path d="M607 732V682" stroke="black" stroke-width="25" stroke-linecap="round" stroke-linejoin="round"></path><path d="M657 732V682" stroke="black" stroke-width="25" stroke-linecap="round" stroke-linejoin="round"></path><path d="M332 369.5L369.5 332L407 369.5" stroke="black" stroke-width="25" stroke-linecap="round" stroke-linejoin="round"></path><path d="M407 369.5L444.5 332L482 369.5" stroke="black" stroke-width="25" stroke-linecap="round" stroke-linejoin="round"></path><path d="M482 369.5L519.5 332L557 369.5" stroke="black" stroke-width="25" stroke-linecap="round" stroke-linejoin="round"></path><path d="M169.5 482L207 444.5L244.5 482" stroke="black" stroke-width="25" stroke-linecap="round" stroke-linejoin="round"></path><path d="M244.5 482L282 444.5L319.5 482" stroke="black" stroke-width="25" stroke-linecap="round" stroke-linejoin="round"></path><path d="M319.5 482L357 444.5L394.5 482" stroke="black" stroke-width="25" stroke-linecap="round" stroke-linejoin="round"></path><path d="M619.5 132H144.5C130.687 132 119.5 162.775 119.5 200.75C119.5 238.725 130.75 269.5 144.5 269.5H619.5C633.25 269.5 644.5 238.725 644.5 200.75C644.5 162.775 633.313 132 619.5 132Z" stroke="black" stroke-width="25" stroke-linecap="round" stroke-linejoin="round"></path></mask><g mask="url(#mask0_150_1772)"><rect x="-36" y="-121" width="961" height="944" fill="white"></rect></g></svg>